<?xml version="1.0" encoding="UTF-8" standalone="no"?>
<!DOCTYPE svg PUBLIC "-//W3C//DTD SVG 20010904//EN" "http://www.w3.org/TR/2001/REC-SVG-20010904/DTD/svg10.dtd">
<svg version="1.0" xmlns="http://www.w3.org/2000/svg" width="184" height="184" viewBox="489 313.5 138 138" preserveAspectRatio="xMidYMid meet">

<g transform="translate(0.000000,801.000000) scale(0.100000,-0.100000)" fill="#000000" stroke="none">
<path d="M0 4005 l0 -4005 4005 0 4005 0 0 4005 0 4005 -4005 0 -4005 0 0 -4005z m6005 751 c13 -13 26 -22 28 -20 2 3 33 -26 69 -64 69 -73 151 -214 133 -230 -10 -9 -513 -162 -534 -162 -7 0 -6 9 5 25 9 14 20 23 24 20 5 -3 12 0 16 6 4 8 3 9 -4 5 -7 -4 -12 -2 -12 5 0 19 233 439 243 439 4 0 19 -11 32 -24z m-330 -51 c32 -9 79 -25 103 -35 l44 -20 -43 -77 c-135 -244 -218 -398 -215 -400 1 -1 113 31 249 72 135 41 253 75 261 75 19 0 32 -71 29 -173 -6 -293 -244 -533 -533 -538 -137 -2 -232 23 -330 88 -126 83 -202 192 -240 341 l-11 42 -225 -2 -226 -3 -69 -113 c-38 -62 -69 -115 -69 -117 0 -3 101 -5 225 -5 l225 0 0 -100 0 -100 -410 0 -409 0 36 62 c20 35 39 65 42 68 3 3 13 19 22 35 9 17 48 83 87 147 40 65 72 120 72 123 0 3 -83 5 -185 5 l-185 0 -2 -217 -3 -218 -103 -2 -102 -2 0 210 c1 140 5 209 12 209 7 0 7 4 1 13 -6 6 -9 60 -9 119 1 60 -2 108 -6 108 -5 0 -8 10 -8 23 0 34 -78 131 -125 156 -59 31 -140 38 -204 16 -76 -25 -169 -131 -171 -192 0 -13 -3 -23 -8 -23 -4 0 -5 -21 -3 -47 3 -43 2 -46 -13 -34 -9 7 -16 9 -16 3 0 -5 7 -12 15 -15 12 -5 14 -50 15 -277 l0 -270 -100 0 -100 0 0 223 0 222 -346 -2 -346 -3 -29 29 c-16 16 -29 37 -29 45 0 19 11 21 29 4 7 -7 4 2 -6 20 -18 33 -18 33 7 52 21 17 40 20 115 19 50 0 130 0 179 0 l89 1 -7 31 c-3 16 -13 37 -21 45 -8 9 -15 19 -15 23 0 19 -100 104 -150 129 -56 28 -190 47 -190 28 0 -5 -3 -7 -6 -3 -3 3 -24 -1 -46 -9 -22 -7 -45 -11 -51 -7 -6 3 -7 1 -3 -5 4 -7 3 -12 -2 -12 -6 0 -33 -21 -61 -46 -73 -66 -116 -144 -125 -229 -2 -16 -5 -34 -7 -40 -1 -5 0 -17 3 -25 3 -8 11 -35 18 -60 26 -102 137 -215 235 -239 59 -15 151 -16 187 -2 18 7 29 6 38 -2 8 -7 11 -8 7 -1 -4 6 17 26 46 45 29 18 58 40 66 47 13 12 17 12 28 -4 7 -10 11 -24 8 -32 -2 -7 -1 -11 4 -8 4 3 24 -23 44 -57 l37 -62 -22 -18 c-76 -59 -284 -135 -264 -96 4 8 1 6 -7 -3 -10 -13 -29 -18 -65 -18 -45 0 -51 2 -45 18 5 15 4 15 -9 -2 -13 -16 -20 -17 -70 -7 -156 33 -309 154 -384 306 -28 56 -35 80 -26 83 10 3 9 7 -4 16 -26 19 -34 205 -10 229 10 9 13 17 8 17 -13 0 -3 40 14 61 8 9 11 18 8 21 -11 12 47 108 101 166 111 120 237 175 400 176 171 0 301 -56 412 -177 62 -68 120 -180 129 -248 5 -36 11 -49 23 -49 14 0 14 2 1 10 -11 7 -1 9 35 9 28 -1 55 -1 62 0 6 1 15 25 19 54 8 56 8 55 16 77 3 8 13 36 23 63 20 55 106 153 174 196 129 82 335 88 463 13 61 -35 138 -101 138 -117 0 -7 6 -15 13 -18 16 -6 64 -94 71 -131 3 -16 8 -31 10 -34 3 -3 0 -12 -7 -20 -7 -10 -8 -13 -1 -9 7 4 14 -7 18 -33 l6 -39 128 -3 c70 -2 178 -1 241 2 l115 5 68 113 c37 62 68 115 68 117 0 3 -90 5 -200 5 l-200 0 0 98 0 99 375 1 c236 0 377 -3 381 -9 7 -12 -105 -199 -119 -199 -6 0 -8 -3 -4 -6 3 -3 -18 -45 -47 -93 -29 -47 -59 -96 -65 -108 l-12 -23 170 0 170 0 16 57 c29 100 74 174 149 248 39 39 94 83 123 98 114 61 280 82 398 52z m-2205 -772 c17 -21 36 -55 42 -75 10 -33 13 -35 23 -21 10 14 13 12 23 -17 17 -48 15 -109 -3 -116 -8 -4 -13 -10 -10 -15 5 -7 -44 -39 -59 -39 -3 0 1 15 9 32 15 37 5 67 -34 102 -12 11 -21 27 -21 38 0 28 -16 22 -39 -16 -27 -43 -27 -96 0 -130 18 -22 18 -26 4 -26 -9 0 -30 13 -46 29 -24 25 -29 38 -29 78 0 42 6 54 40 93 22 25 40 49 40 53 0 5 4 6 8 3 4 -2 6 11 4 30 -5 44 9 43 48 -3z m-371 -477 c13 -16 10 -51 -6 -67 -7 -7 -22 -13 -35 -14 -13 -1 -26 -3 -30 -4 -5 0 -8 -15 -8 -32 0 -20 -4 -29 -12 -26 -12 3 -14 40 -9 145 1 17 85 16 100 -2z m375 -60 c-2 -87 -2 -86 -14 -86 -6 0 -10 33 -10 78 0 58 3 79 13 79 9 0 12 -19 11 -71z m446 62 c0 -7 -14 -33 -30 -58 -38 -57 -38 -71 0 -68 16 2 31 -1 32 -7 2 -5 -21 -11 -49 -13 -31 -2 -53 1 -53 7 0 5 16 36 35 68 l35 58 -35 3 c-53 5 -42 22 15 22 33 0 50 -4 50 -12z m440 7 c0 -15 -42 -85 -50 -85 -6 0 -10 -9 -10 -20 0 -16 7 -20 30 -20 20 0 30 -5 30 -15 0 -11 -12 -15 -44 -15 -54 0 -64 12 -40 48 10 15 27 42 36 60 l18 32 -36 0 c-21 0 -33 4 -29 10 6 10 95 14 95 5z m443 -74 c28 -74 28 -106 0 -63 -10 14 -26 22 -43 22 -17 0 -33 -8 -43 -22 -24 -37 -28 -16 -8 38 11 27 24 62 30 77 6 16 17 27 24 25 6 -3 25 -37 40 -77z"/>
<path d="M3138 4418 c5 -5 16 -8 23 -6 8 3 3 7 -10 11 -17 4 -21 3 -13 -5z"/>
<path d="M3017 4340 c-3 -11 -2 -22 2 -24 4 -3 8 6 9 20 2 29 -4 31 -11 4z"/>
<path d="M2725 4340 c-3 -5 -1 -10 4 -10 6 0 11 5 11 10 0 6 -2 10 -4 10 -3 0 -8 -4 -11 -10z"/>
<path d="M3066 4307 c3 -10 9 -15 12 -12 3 3 0 11 -7 18 -10 9 -11 8 -5 -6z"/>
<path d="M3136 4287 c3 -10 9 -15 12 -12 3 3 0 11 -7 18 -10 9 -11 8 -5 -6z"/>
<path d="M2758 4223 c7 -3 16 -2 19 1 4 3 -2 6 -13 5 -11 0 -14 -3 -6 -6z"/>
<path d="M3757 4224 c-8 -8 1 -24 14 -24 5 0 9 7 9 15 0 15 -12 20 -23 9z"/>
<path d="M5090 4220 c0 -5 5 -10 11 -10 5 0 7 5 4 10 -3 6 -8 10 -11 10 -2 0 -4 -4 -4 -10z"/>
<path d="M2310 4181 c-8 -17 -7 -24 10 -41 11 -11 24 -20 29 -20 16 0 33 29 29 52 -4 32 -52 38 -68 9z"/>
<path d="M3758 4179 c13 -5 30 -5 38 -1 9 5 1 8 -23 9 -33 1 -35 0 -15 -8z"/>
<path d="M3090 4162 c0 -12 19 -26 26 -19 2 2 -2 10 -11 17 -9 8 -15 8 -15 2z"/>
<path d="M3750 4166 c0 -2 8 -10 18 -17 15 -13 16 -12 3 4 -13 16 -21 21 -21 13z"/>
<path d="M2640 4156 c0 -2 7 -9 15 -16 13 -11 14 -10 9 4 -5 14 -24 23 -24 12z"/>
<path d="M2403 4105 c0 -8 4 -12 9 -9 5 3 6 10 3 15 -9 13 -12 11 -12 -6z"/>
<path d="M3778 4063 c7 -3 16 -2 19 1 4 3 -2 6 -13 5 -11 0 -14 -3 -6 -6z"/>
<path d="M5760 3910 c0 -5 5 -10 11 -10 5 0 7 5 4 10 -3 6 -8 10 -11 10 -2 0 -4 -4 -4 -10z"/>
<path d="M3078 3893 c7 -3 16 -2 19 1 4 3 -2 6 -13 5 -11 0 -14 -3 -6 -6z"/>
<path d="M2418 3743 c7 -3 16 -2 19 1 4 3 -2 6 -13 5 -11 0 -14 -3 -6 -6z"/>
<path d="M2310 3640 c-12 -8 -10 -10 8 -10 13 0 20 4 17 10 -7 12 -6 12 -25 0z"/>
<path d="M3020 3425 c0 -21 5 -25 29 -25 33 0 44 11 35 34 -4 10 -18 16 -35 16 -24 0 -29 -4 -29 -25z"/>
<path d="M4752 3413 c-17 -31 -15 -43 8 -43 21 0 24 12 11 45 -8 19 -8 19 -19 -2z"/>
</g>
</svg>